<svg id="visual" viewBox="0 0 900 600" width="900" height="600" xmlns="http://www.w3.org/2000/svg" xmlns:xlink="http://www.w3.org/1999/xlink" version="1.1"><rect x="0" y="0" width="900" height="600" fill="#001220"></rect><path d="M0 265L30 284.3C60 303.7 120 342.3 180 360C240 377.7 300 374.3 360 361.2C420 348 480 325 540 312.8C600 300.7 660 299.3 720 305.5C780 311.7 840 325.3 870 332.2L900 339L900 601L870 601C840 601 780 601 720 601C660 601 600 601 540 601C480 601 420 601 360 601C300 601 240 601 180 601C120 601 60 601 30 601L0 601Z" fill="#fa7268"></path><path d="M0 403L30 410.3C60 417.7 120 432.3 180 421C240 409.7 300 372.3 360 365.3C420 358.3 480 381.7 540 393.3C600 405 660 405 720 393.7C780 382.3 840 359.7 870 348.3L900 337L900 601L870 601C840 601 780 601 720 601C660 601 600 601 540 601C480 601 420 601 360 601C300 601 240 601 180 601C120 601 60 601 30 601L0 601Z" fill="#eb5967"></path><path d="M0 400L30 411.5C60 423 120 446 180 452.7C240 459.3 300 449.7 360 444C420 438.3 480 436.7 540 447.7C600 458.7 660 482.3 720 480C780 477.7 840 449.3 870 435.2L900 421L900 601L870 601C840 601 780 601 720 601C660 601 600 601 540 601C480 601 420 601 360 601C300 601 240 601 180 601C120 601 60 601 30 601L0 601Z" fill="#da3f67"></path><path d="M0 541L30 544.8C60 548.7 120 556.3 180 544.8C240 533.3 300 502.7 360 492.3C420 482 480 492 540 503.5C600 515 660 528 720 535.8C780 543.7 840 546.3 870 547.7L900 549L900 601L870 601C840 601 780 601 720 601C660 601 600 601 540 601C480 601 420 601 360 601C300 601 240 601 180 601C120 601 60 601 30 601L0 601Z" fill="#c62368"></path></svg>